# xmcd
#
# Track frame offsets:
#	150
#	19730
#	37997
#	58090
#	81320
#	97900
#	105517
#	125047
#	147677
#	169720
#
# Disc length: 2654 seconds
#
# Revision: 4
# Processed by: cddbd v1.5.2PL0 Copyright (c) Steve Scherf et al.
# Submitted via: audiograbber 1.83.01
#
DISCID=840a5c0a,8f0a5c0a
DTITLE=Hofmann, Peter - Wild and lonely heart
DYEAR=1990
DGENRE=Pop
TTITLE0=You can't hurt me anymore
TTITLE1=Changes
TTITLE2=Wild and lonely heart
TTITLE3=Call him savage
TTITLE4=Over you
TTITLE5=Something wicked this way comes (Introduction)
TTITLE6=Where are you calling from
TTITLE7=Wasteland
TTITLE8=Always on my mind
TTITLE9=Something wicked this way comes
EXTD=YEAR: 1990
EXTT0=
EXTT1=
EXTT2=
EXTT3=
EXTT4=
EXTT5=
EXTT6=
EXTT7=
EXTT8=
EXTT9=
PLAYORDER=
